<?xml version="1.0" standalone="no"?>
<!DOCTYPE svg PUBLIC "-//W3C//DTD SVG 20010904//EN"
 "http://www.w3.org/TR/2001/REC-SVG-20010904/DTD/svg10.dtd">
<svg version="1.0" xmlns="http://www.w3.org/2000/svg"
 width="415.000000pt" height="415.000000pt" viewBox="0 0 415.000000 415.000000"
 preserveAspectRatio="xMidYMid meet">
<metadata>
Created by potrace 1.11, written by Peter Selinger 2001-2013
</metadata>
<g transform="translate(0.000000,415.000000) scale(0.100000,-0.100000)"
fill="#000000" stroke="none">
<path d="M2082 3798 l-43 -30 48 -33 c43 -29 48 -31 51 -14 5 26 46 25 72 -1
12 -12 20 -33 20 -52 0 -29 -5 -35 -39 -49 -68 -29 -69 -32 -73 -342 l-4 -279
-52 -17 -52 -18 0 188 c0 186 0 188 -25 218 -33 39 -84 55 -151 48 -45 -5 -56
-3 -64 12 -12 24 -70 51 -109 51 l-31 0 0 90 c0 83 1 90 20 90 11 0 20 3 20 6
0 15 -63 95 -69 87 -21 -25 -61 -82 -61 -87 0 -3 9 -6 20 -6 19 0 20 -7 20
-115 l0 -115 51 0 c80 0 119 -28 94 -67 -10 -14 -15 -48 -15 -93 l0 -70 -154
0 c-149 0 -155 1 -170 22 -9 12 -16 35 -16 50 0 22 5 28 21 28 19 0 20 1 3 28
-9 16 -24 39 -34 52 l-17 23 -32 -46 c-37 -54 -37 -57 -11 -57 17 0 20 -7 20
-41 0 -33 6 -47 34 -75 39 -39 34 -38 216 -38 l135 -1 0 -50 0 -50 -75 0 c-70
0 -75 2 -78 22 -3 21 -5 21 -53 -14 l-49 -35 47 -34 c44 -32 48 -33 51 -14 3
18 13 20 105 22 l102 3 5 172 c3 94 7 173 10 176 37 33 125 36 164 6 l26 -20
0 -210 c0 -194 -2 -213 -21 -251 -15 -29 -24 -74 -31 -152 -12 -137 -5 -193
25 -207 37 -17 69 -86 75 -159 4 -59 2 -69 -19 -93 -30 -34 -180 -115 -238
-128 -101 -23 -139 -63 -165 -175 -10 -43 -23 -89 -29 -102 -11 -22 -12 -23
-25 -5 -13 17 -14 16 -7 -7 3 -14 3 -20 -2 -14 -4 6 -25 17 -45 25 -21 7 -38
16 -38 20 0 10 -36 18 -48 10 -5 -3 -9 -17 -8 -30 0 -13 -5 -26 -11 -28 -8 -3
-13 4 -13 15 0 11 -7 22 -15 26 -17 6 -21 -19 -4 -29 17 -11 5 -27 -31 -39
-40 -13 -90 -10 -90 6 0 6 11 8 27 5 28 -5 59 15 48 33 -9 15 -35 12 -41 -5
-4 -10 -20 -15 -45 -15 -21 0 -39 -5 -39 -10 0 -7 -23 -9 -65 -5 -56 6 -70 4
-100 -15 -19 -12 -35 -28 -35 -36 0 -9 -4 -12 -10 -9 -15 9 -60 -18 -98 -57
-11 -12 -18 -14 -23 -7 -4 7 -12 8 -19 4 -9 -6 -9 -9 1 -16 10 -6 11 -9 2 -9
-15 0 -17 -36 -3 -45 6 -3 10 -10 10 -15 0 -14 -100 48 -131 81 -15 16 -33 29
-41 29 -7 0 -25 11 -40 24 -14 14 -60 43 -102 66 -42 22 -100 57 -129 77 -29
20 -60 36 -70 36 -9 -1 -15 2 -12 8 4 5 -5 13 -19 19 -14 5 -26 14 -26 20 0 5
-9 10 -21 10 -11 0 -17 5 -14 10 3 6 -1 10 -9 10 -9 0 -16 5 -16 10 0 6 -8 14
-18 18 -9 4 -42 23 -72 42 -30 19 -56 33 -57 30 -1 -3 -13 6 -27 19 l-26 24 0
-1066 0 -1067 2075 0 2075 0 0 1158 0 1158 -64 0 c-36 0 -71 5 -78 12 -9 7
-19 7 -28 2 -8 -5 -26 -6 -39 -3 -20 5 -23 3 -18 -11 5 -14 -1 -16 -46 -16
-29 0 -57 -4 -63 -9 -5 -6 -35 -12 -66 -15 -31 -2 -72 -9 -90 -15 -105 -35
-193 -61 -208 -61 -21 0 -54 -35 -45 -49 3 -6 -1 -11 -9 -11 -9 0 -16 9 -16
20 0 28 -45 27 -60 -1 -7 -12 -18 -18 -26 -15 -7 3 -13 2 -13 -2 4 -23 -4 -33
-10 -12 -4 14 -15 26 -24 28 -15 3 -16 0 -7 -24 6 -15 9 -29 6 -31 -8 -9 -47
38 -40 48 4 7 0 9 -12 5 -11 -3 -38 -10 -62 -15 -46 -10 -82 -35 -82 -58 0 -7
-4 -13 -10 -13 -5 0 -7 7 -4 15 8 19 -16 20 -41 1 -19 -14 -19 -15 -2 -33 9
-11 17 -25 17 -31 0 -6 13 -12 28 -14 l29 -3 -19 -30 -19 -30 7 28 c4 17 2 27
-5 27 -6 0 -11 -9 -11 -19 0 -16 -6 -19 -34 -18 -47 3 -58 17 -15 18 30 1 31
2 9 8 -29 7 -34 34 -8 41 11 3 15 10 9 18 -6 11 -19 9 -62 -8 -30 -11 -76 -23
-104 -26 -27 -2 -60 -11 -72 -19 -35 -24 -49 -18 -67 28 -18 48 -57 78 -132
104 -71 24 -189 90 -229 128 -32 29 -35 38 -35 86 1 62 17 114 53 167 45 67
50 100 33 217 -9 59 -23 119 -31 135 -12 23 -15 73 -15 249 l0 220 26 20 c42
33 141 26 166 -13 4 -6 8 -87 8 -179 0 -178 7 -214 49 -252 14 -12 43 -22 74
-25 42 -4 52 -9 51 -22 -1 -10 1 -18 4 -18 7 0 102 61 102 65 0 4 -98 65 -104
65 -2 0 -2 -9 1 -20 5 -18 0 -20 -39 -20 -69 0 -80 19 -82 137 l-1 98 205 5
c229 6 239 8 265 73 23 57 20 87 -9 87 -19 0 -24 -6 -29 -36 -12 -73 -16 -74
-239 -74 l-198 0 0 55 c0 91 -29 128 -109 141 l-41 7 0 63 c0 84 18 103 95
105 30 1 60 3 65 4 6 1 19 3 30 4 11 0 37 17 59 36 33 30 40 33 51 20 7 -8 16
-15 20 -15 7 0 31 102 25 108 -2 2 -29 -2 -60 -8 -43 -9 -54 -15 -46 -24 8 -9
3 -20 -19 -41 -27 -26 -39 -29 -113 -34 -55 -4 -92 -12 -110 -24 -25 -16 -30
-16 -57 -2 -16 8 -40 15 -55 15 -22 0 -25 4 -25 35 0 68 -51 125 -110 125 -13
0 -24 8 -27 20 -7 26 -10 25 -61 -12z m268 -238 c27 -27 30 -150 4 -150 -9 0
-31 -15 -50 -34 l-34 -34 0 -189 0 -190 -50 16 -50 16 0 277 c0 275 0 277 22
292 34 24 133 21 158 -4z m1625 -1310 c3 -5 1 -10 -4 -10 -6 0 -11 5 -11 10 0
6 2 10 4 10 3 0 8 -4 11 -10z m-95 -10 c8 -5 11 -10 5 -10 -5 0 -17 5 -25 10
-8 5 -10 10 -5 10 6 0 17 -5 25 -10z m-665 -140 c8 -13 -5 -13 -25 0 -13 8
-13 10 2 10 9 0 20 -4 23 -10z m-278 -86 c-3 -3 -12 -4 -19 -1 -8 3 -5 6 6 6
11 1 17 -2 13 -5z m-1368 -226 c-1 -42 -1 -42 -10 -13 -5 17 -7 36 -4 43 9 24
15 11 14 -30z m-372 -18 c-3 -13 0 -20 9 -20 8 0 14 -7 14 -15 0 -8 -4 -15 -8
-15 -15 0 -53 -41 -47 -51 4 -5 1 -9 -4 -9 -15 0 -14 -27 2 -33 6 -2 8 -8 4
-13 -4 -5 -13 -2 -18 6 -8 11 -12 12 -16 3 -6 -15 -39 -17 -48 -3 -3 6 2 10
13 10 10 0 26 8 36 19 15 16 15 19 1 31 -8 7 -15 21 -15 32 0 14 -5 18 -16 14
-9 -3 -27 -6 -40 -6 -15 0 -24 -6 -24 -15 0 -8 5 -15 10 -15 6 0 10 -7 10 -15
0 -13 -4 -14 -20 -5 -11 6 -18 15 -15 20 3 5 -3 10 -12 13 -14 3 -10 7 15 17
17 6 32 16 32 21 0 5 9 9 19 9 11 0 26 6 33 13 17 18 37 25 67 26 19 1 22 -3
18 -19z m76 -57 c-7 -2 -21 -2 -30 0 -10 3 -4 5 12 5 17 0 24 -2 18 -5z m227
-13 c0 -5 -4 -10 -10 -10 -5 0 -10 5 -10 10 0 6 5 10 10 10 6 0 10 -4 10 -10z
m-60 -24 c0 -2 -7 -7 -16 -10 -8 -3 -12 -2 -9 4 6 10 25 14 25 6z m-544 -39
c13 -12 -14 -25 -42 -19 -23 4 -30 13 -19 23 7 8 53 5 61 -4z m324 -1 c0 -3
-4 -8 -10 -11 -5 -3 -10 -1 -10 4 0 6 5 11 10 11 6 0 10 -2 10 -4z m114 -5 c3
-5 -3 -11 -13 -14 -14 -3 -18 -11 -14 -25 2 -11 0 -22 -5 -26 -5 -3 -10 7 -10
22 0 39 27 67 42 43z m59 2 c-7 -2 -19 -2 -25 0 -7 3 -2 5 12 5 14 0 19 -2 13
-5z m-8 -33 c-3 -5 -13 -10 -21 -10 -8 0 -12 5 -9 10 3 6 13 10 21 10 8 0 12
-4 9 -10z m-325 -19 c0 -12 -20 -25 -27 -18 -7 7 6 27 18 27 5 0 9 -4 9 -9z
m180 -21 c0 -5 -4 -10 -10 -10 -5 0 -10 5 -10 10 0 6 5 10 10 10 6 0 10 -4 10
-10z m-230 -25 c-14 -17 -30 -20 -30 -6 0 5 8 12 18 14 9 3 19 5 21 6 2 0 -2
-6 -9 -14z m195 -5 c-3 -5 -11 -10 -16 -10 -6 0 -7 5 -4 10 3 6 11 10 16 10 6
0 7 -4 4 -10z"/>
<path d="M1148 1732 c-19 -4 -24 -17 -9 -26 5 -3 14 1 21 9 15 18 12 23 -12
17z"/>
<path d="M720 1880 c0 -5 5 -10 11 -10 5 0 7 5 4 10 -3 6 -8 10 -11 10 -2 0
-4 -4 -4 -10z"/>
<path d="M1545 1870 c-3 -5 -1 -10 4 -10 6 0 11 5 11 10 0 6 -2 10 -4 10 -3 0
-8 -4 -11 -10z"/>
<path d="M685 1860 c-3 -5 1 -10 9 -10 9 0 16 5 16 10 0 6 -4 10 -9 10 -6 0
-13 -4 -16 -10z"/>
<path d="M860 1845 c0 -14 -7 -16 -34 -13 -19 2 -32 0 -30 -4 11 -17 97 -3 91
15 -6 18 -27 20 -27 2z"/>
<path d="M1120 1830 l-25 -8 25 0 c14 0 39 4 55 8 l30 8 -30 0 c-16 0 -41 -4
-55 -8z"/>
<path d="M721 1821 c-8 -5 -9 -11 -3 -15 5 -3 12 1 16 9 6 17 6 18 -13 6z"/>
<path d="M750 1791 c-13 -11 -28 -17 -32 -15 -4 3 -8 0 -8 -5 0 -6 -8 -11 -18
-11 -11 0 -18 -8 -19 -21 -1 -12 3 -18 10 -16 7 3 11 9 10 14 -1 5 8 10 19 10
11 1 30 11 42 22 12 12 28 21 35 21 7 0 9 5 6 10 -9 14 -16 12 -45 -9z"/>
<path d="M825 1771 c-6 -5 -19 -11 -30 -14 -19 -4 -19 -5 1 -6 12 0 27 6 34
14 14 16 10 20 -5 6z"/>
</g>
</svg>
